<?xml version="1.0" encoding="UTF-8" standalone="no"?>
<!DOCTYPE svg PUBLIC "-//W3C//DTD SVG 1.1//EN" "http://www.w3.org/Graphics/SVG/1.1/DTD/svg11.dtd">
<svg width="100%" height="100%" viewBox="0 0 5834 1250" version="1.1" xmlns="http://www.w3.org/2000/svg" xmlns:xlink="http://www.w3.org/1999/xlink" xml:space="preserve" xmlns:serif="http://www.serif.com/" style="fill-rule:evenodd;clip-rule:evenodd;stroke-linejoin:round;stroke-miterlimit:2;">
    <path d="M426.432,228.027C406.51,230.371 390.299,236.914 377.799,247.656C365.299,258.398 355.436,271.777 348.21,287.793C340.983,303.809 336.1,321.289 333.561,340.234C331.022,359.18 329.753,378.027 329.753,396.777L329.753,853.809C329.753,872.559 331.022,891.406 333.561,910.352C336.1,929.297 340.885,946.68 347.917,962.5C354.948,978.32 364.811,991.602 377.507,1002.34C390.202,1013.09 406.51,1019.63 426.432,1021.97L426.432,1166.11C372.917,1164.55 328.19,1154.2 292.253,1135.06C256.315,1115.92 227.409,1090.43 205.534,1058.59C183.659,1026.76 168.034,989.746 158.659,947.559C149.284,905.371 144.596,860.254 144.596,812.207L144.596,442.48C144.596,393.652 149.186,347.754 158.366,304.785C167.546,261.816 183.073,224.219 204.948,191.992C226.823,159.766 255.827,134.082 291.96,114.941C328.092,95.801 372.917,85.254 426.432,83.301L426.432,228.027ZM455.729,83.301C509.245,85.254 554.069,95.801 590.202,114.941C626.335,134.082 655.436,159.766 677.507,191.992C699.577,224.219 715.299,261.719 724.674,304.492C734.049,347.266 738.737,393.262 738.737,442.48L738.737,808.105C738.737,856.152 734.049,901.465 724.674,944.043C715.299,986.621 699.674,1024.02 677.799,1056.25C655.924,1088.48 626.921,1114.45 590.788,1134.18C554.655,1153.91 509.635,1164.55 455.729,1166.11L455.729,1021.97C476.042,1019.63 492.546,1013.18 505.241,1002.64C517.936,992.09 527.799,978.906 534.831,963.086C541.862,947.266 546.647,929.785 549.186,910.645C551.725,891.504 552.995,872.559 552.995,853.809L552.995,396.777C552.995,378.027 551.725,359.082 549.186,339.941C546.647,320.801 541.764,303.32 534.538,287.5C527.311,271.68 517.35,258.398 504.655,247.656C491.96,236.914 475.651,230.371 455.729,228.027L455.729,83.301Z" style="fill:rgb(0,209,178);fill-rule:nonzero;"/>
    <path d="M1302.41,1146.78L1176.43,1146.78L1033.46,636.429L1033.46,103.226L1044.01,103.226L1302.41,1146.78L1302.41,1146.78ZM1252.02,817.483L1428.97,103.226L1441.28,103.226L1441.28,636.429L1312.37,1064.16L1252.02,817.483ZM860.613,1146.78L860.613,102.64L1004.17,102.64L1004.17,1146.78L860.613,1146.78ZM1470.57,1146.78L1470.57,102.64L1614.13,102.64L1614.13,1146.78L1470.57,1146.78Z" style="fill:rgb(0,209,178);fill-rule:nonzero;"/>
    <path d="M1884.25,102.051L1909.44,162.988L1909.44,1146.78L1750.07,1146.78L1750.07,102.047L1884.25,102.047L1884.25,102.051ZM2153.2,1085.26L2153.2,102.051L2307.3,102.051L2307.3,1146.78L2177.8,1146.78L2153.2,1085.26ZM1938.74,233.887L2123.9,638.184L2123.9,1011.43L1938.74,590.723L1938.74,233.887Z" style="fill:rgb(0,209,178);fill-rule:nonzero;"/>
    <rect x="2442.64" y="102.637" width="185.742" height="1044.14" style="fill:rgb(0,209,178);"/>
    <path d="M3022.72,82.715C3058.66,83.496 3091.96,90.625 3122.62,104.102C3153.29,117.578 3179.95,135.84 3202.6,158.887C3225.26,181.934 3243.33,209.18 3256.8,240.625C3270.28,272.07 3277.8,305.957 3279.36,342.285L3279.36,363.965L3091.28,393.262C3091.28,387.793 3092.45,364.355 3092.45,358.105C3091.67,344.824 3089.91,331.152 3087.17,317.09C3084.44,303.027 3080.43,289.941 3075.16,277.832C3069.89,265.723 3062.95,255.176 3054.36,246.191C3045.77,237.207 3035.22,230.957 3022.72,227.441L3022.72,82.715ZM3001.04,1166.69C2956.51,1164.35 2918.03,1154.19 2885.61,1136.23C2853.19,1118.26 2826.04,1095.02 2804.17,1066.5C2782.29,1037.98 2765.59,1005.76 2754.07,969.82C2742.55,933.883 2735.42,896.578 2732.68,857.906L2918.42,820.406C2919.2,842.281 2920.87,864.254 2923.4,886.324C2925.94,908.394 2930.24,928.707 2936.3,947.262C2942.35,965.816 2950.55,981.734 2960.9,995.016C2971.26,1008.3 2984.63,1017.09 3001.04,1021.38L3001.04,1166.69ZM2931.31,663.961L2889.13,624.117C2869.6,606.93 2850.55,589.156 2832,570.797C2813.44,552.437 2796.84,532.32 2782.19,510.445C2767.55,488.57 2755.83,464.254 2747.04,437.496C2738.25,410.738 2733.85,380.562 2733.85,346.969C2733.85,307.906 2740.1,272.652 2752.6,241.207C2765.1,209.762 2782.78,182.711 2805.63,160.055C2828.48,137.398 2855.83,119.527 2887.66,106.441C2919.5,93.355 2954.75,85.641 2993.42,83.297L2993.42,225.68C2980.53,226.851 2969.2,230.465 2959.44,236.519C2949.67,242.574 2941.57,250.094 2935.12,259.078C2928.68,268.062 2923.89,278.414 2920.77,290.133C2917.64,301.851 2916.08,314.156 2916.08,327.047C2916.08,344.625 2918.33,361.031 2922.82,376.266C2927.31,391.5 2933.56,405.758 2941.57,419.039C2949.58,432.32 2958.95,444.918 2969.69,456.832C2980.43,468.746 2992.06,480.172 3004.56,491.109C3010.03,496.187 3045.96,529.781 3056.12,539.156L2931.31,663.961ZM3076.63,559.664L3098.31,579C3123.7,602.437 3147.62,626.363 3170.08,650.777C3192.55,675.191 3212.08,701.07 3228.68,728.414C3245.28,755.758 3258.46,785.25 3268.23,816.891C3277.99,848.531 3282.88,883.297 3282.88,921.187C3282.88,957.906 3276.24,991.109 3262.95,1020.8C3249.67,1050.48 3231.61,1075.97 3208.76,1097.26C3185.9,1118.55 3159.15,1135.25 3128.48,1147.36C3097.82,1159.47 3065.1,1166.11 3030.34,1167.28L3030.34,1024.31C3043.62,1023.53 3054.85,1020.6 3064.03,1015.52C3073.21,1010.45 3080.73,1003.61 3086.59,995.016C3092.45,986.422 3096.65,976.559 3099.18,965.426C3101.72,954.293 3102.99,942.086 3102.99,928.805C3102.99,906.93 3099.38,885.738 3092.15,865.23C3084.93,844.723 3075.36,825.094 3063.44,806.344C3051.53,787.594 3037.95,769.723 3022.72,752.73C3007.49,735.738 2991.86,719.82 2975.85,704.976L2952.41,683.297L3076.63,559.664Z" style="fill:rgb(0,209,178);fill-rule:nonzero;"/>
    <path d="M3381.9,1146.78L3381.9,102.64L3567.06,102.64L3567.06,1146.78L3381.9,1146.78ZM3596.35,1017.29L3793.23,1017.29L3793.23,1146.78L3596.35,1146.78L3596.35,1017.29Z" style="fill:rgb(0,209,178);fill-rule:nonzero;"/>
    <path d="M4070.96,102.637L4212.76,102.637L4434.24,1146.78L4255.53,1146.78L4139.51,481.738L4070.96,102.637ZM4111.39,494.043L4061,804.59L4167.64,804.59L4183.46,912.988L4047.52,912.988L4002.41,1146.78L3819.01,1146.78L4040.49,102.637L4111.39,494.043Z" style="fill:rgb(0,209,178);fill-rule:nonzero;"/>
    <path d="M4769.4,82.715C4805.34,83.496 4838.64,90.625 4869.3,104.102C4899.97,117.578 4926.63,135.84 4949.28,158.887C4971.94,181.934 4990.01,209.18 5003.48,240.625C5016.96,272.07 5024.48,305.957 5026.04,342.285L5026.04,363.965L4837.95,393.262C4837.95,387.793 4839.13,364.355 4839.13,358.105C4838.35,344.824 4836.59,331.152 4833.85,317.09C4831.12,303.027 4827.11,289.941 4821.84,277.832C4816.57,265.723 4809.63,255.176 4801.04,246.191C4792.45,237.207 4781.9,230.957 4769.4,227.441L4769.4,82.715ZM4747.72,1166.69C4703.19,1164.35 4664.71,1154.19 4632.29,1136.23C4599.87,1118.26 4572.72,1095.02 4550.85,1066.5C4528.97,1037.98 4512.27,1005.76 4500.75,969.82C4489.22,933.883 4482.1,896.578 4479.36,857.906L4665.1,820.406C4665.88,842.281 4667.55,864.254 4670.08,886.324C4672.62,908.394 4676.92,928.707 4682.97,947.262C4689.03,965.816 4697.23,981.734 4707.58,995.016C4717.94,1008.3 4731.31,1017.09 4747.72,1021.38L4747.72,1166.69ZM4677.99,663.961L4635.81,624.117C4616.28,606.93 4597.23,589.156 4578.68,570.797C4560.12,552.437 4543.52,532.32 4528.87,510.445C4514.22,488.57 4502.51,464.254 4493.72,437.496C4484.93,410.738 4480.53,380.562 4480.53,346.969C4480.53,307.906 4486.78,272.652 4499.28,241.207C4511.78,209.762 4529.46,182.711 4552.31,160.055C4575.16,137.398 4602.51,119.527 4634.34,106.441C4666.18,93.355 4701.43,85.641 4740.1,83.297L4740.1,225.68C4727.21,226.851 4715.88,230.465 4706.12,236.519C4696.35,242.574 4688.25,250.094 4681.8,259.078C4675.36,268.062 4670.57,278.414 4667.45,290.133C4664.32,301.851 4662.76,314.156 4662.76,327.047C4662.76,344.625 4665.01,361.031 4669.5,376.266C4673.99,391.5 4680.24,405.758 4688.25,419.039C4696.26,432.32 4705.63,444.918 4716.37,456.832C4727.11,468.746 4738.74,480.172 4751.24,491.109C4756.7,496.187 4792.64,529.781 4802.8,539.156L4677.99,663.961ZM4823.31,559.664L4844.99,579C4870.38,602.437 4894.3,626.363 4916.76,650.777C4939.22,675.191 4958.76,701.07 4975.36,728.414C4991.96,755.758 5005.14,785.25 5014.91,816.891C5024.67,848.531 5029.56,883.297 5029.56,921.187C5029.56,957.906 5022.92,991.109 5009.63,1020.8C4996.35,1050.48 4978.29,1075.97 4955.44,1097.26C4932.58,1118.55 4905.83,1135.25 4875.16,1147.36C4844.5,1159.47 4811.78,1166.11 4777.02,1167.28L4777.02,1024.31C4790.3,1023.53 4801.53,1020.6 4810.71,1015.52C4819.89,1010.45 4827.41,1003.61 4833.27,995.016C4839.13,986.422 4843.33,976.559 4845.86,965.426C4848.4,954.293 4849.67,942.086 4849.67,928.805C4849.67,906.93 4846.06,885.738 4838.83,865.23C4831.61,844.723 4822.04,825.094 4810.12,806.344C4798.21,787.594 4784.63,769.723 4769.4,752.73C4754.17,735.738 4738.54,719.82 4722.53,704.976L4699.09,683.297L4823.31,559.664Z" style="fill:rgb(0,209,178);fill-rule:nonzero;"/>
    <path d="M5688.74,102.637L5688.74,1146.78L5501.83,1146.78L5501.83,672.168L5343.04,672.168L5343.04,553.809L5501.83,553.809L5501.83,102.637L5688.74,102.637ZM5313.74,1146.78L5128.58,1146.78L5128.58,102.637L5314.33,102.637L5313.74,1146.78Z" style="fill:rgb(0,209,178);fill-rule:nonzero;"/>
</svg>
